# xmcd
#
# Track frame offsets:
#	150
#	20372
#	37800
#	54842
#	69312
#	90817
#	110325
#	127430
#	145645
#	164500
#
# Disc length: 2420 seconds
#
# Revision: 0
# Processed by: cddbd v1.5.2PL0 Copyright (c) Steve Scherf et al.
# Submitted via: audiograbber 1.83.01
#
DISCID=7709720a
DTITLE=Alice Cooper - Trash
DYEAR=1989
DGENRE=Rock
TTITLE0=Poison
TTITLE1=Spark In The Dark
TTITLE2=House Of Fire
TTITLE3=Why Trust You
TTITLE4=Only My Heart Talkin'
TTITLE5=Bed Of Nails
TTITLE6=This Maniac's In Love With You
TTITLE7=Trash
TTITLE8=Hell Is Living Without You
TTITLE9=I'm Your Gun
EXTD=
EXTT0=
EXTT1=
EXTT2=
EXTT3=
EXTT4=
EXTT5=
EXTT6=
EXTT7=
EXTT8=
EXTT9=
PLAYORDER=
